<?xml version="1.0" standalone="no"?>
<!DOCTYPE svg PUBLIC "-//W3C//DTD SVG 1.1//EN" "http://www.w3.org/Graphics/SVG/1.1/DTD/svg11.dtd" >
<svg xmlns="http://www.w3.org/2000/svg">
<metadata>Generated by IcoMoon</metadata>
<defs>
<font id="icomoon" horiz-adv-x="1024">
<font-face units-per-em="1024" ascent="960" descent="-64" />
<missing-glyph horiz-adv-x="1024" />
<glyph unicode="&#x20;" horiz-adv-x="512" d="" />
<glyph unicode="&#xe900;" glyph-name="activity" d="M511.979-64c-282.769 0-511.999 229.232-511.999 511.999 0 282.771 229.23 512.001 511.999 512.001s511.999-229.23 511.999-512.001c0-282.767-229.23-511.999-511.999-511.999zM511.979 928c-265.096 0-479.999-214.902-479.999-480.001 0-265.094 214.904-479.997 479.999-479.997s479.999 214.904 479.999 479.997c0 265.099-214.904 480.001-479.999 480.001zM799.978 223.999c0-35.346-28.655-64-64-64h-447.999c-35.347 0-64 28.655-64 64v304.002h-32v32c0 35.346 28.655 64 64 64h104.915c-15.325 17.011-24.915 39.301-24.915 64 0 53.020 42.979 95.999 95.999 95.999 33.433 0 62.812-17.133 80-43.055 17.191 25.921 46.567 43.055 80 43.055 53.020 0 95.999-42.981 95.999-95.999 0-24.7-9.59-46.989-24.915-64h104.915c35.347 0 64-28.655 64-64v-32h-32v-304.002zM527.978 192.002h207.999c17.674 0 32 14.326 32 31.999v128.001h-239.999v-160zM527.978 384.001h240v144h-240v-144zM255.979 223.999c0-17.671 14.326-31.999 32-31.999h207.999v160.001h-239.999v-128.002zM255.979 384.001h239.999v144h-239.999v-144zM495.978 688c0 35.346-28.653 64-64 64s-64-28.655-64-64c0-35.347 28.653-64 64-64h64v64zM591.979 752.001c-35.346 0-64-28.655-64-64v-64h64c35.346 0 64 28.653 64 64 0 35.345-28.655 64-64 64zM767.978 592.003h-511.999c-17.674 0-32-14.328-32-32.002h575.999c0 17.674-14.326 32.002-32 32.002z" />
<glyph unicode="&#xe901;" glyph-name="address" d="M511.979 960c-205.65 0-372.364-166.712-372.364-372.364 0-205.654 372.364-651.636 372.364-651.636s372.364 445.983 372.364 651.636c0 205.652-166.712 372.364-372.364 372.364zM201.675 575.892c0 177.866 138.926 322.048 310.303 322.048s310.303-144.182 310.303-322.048c0-177.856-310.303-546.801-310.303-546.801s-310.303 368.945-310.303 546.801zM511.979 773.817c-102.824 0-186.181-83.357-186.181-186.18 0-102.828 83.357-186.181 186.181-186.181 102.826 0 186.181 83.354 186.181 186.181 0 102.822-83.355 186.18-186.181 186.18zM511.979 463.515c-68.549 0-124.121 55.57-124.121 124.121 0 68.553 55.572 124.121 124.121 124.121s124.121-55.569 124.121-124.121c0-68.551-55.572-124.121-124.121-124.121z" />
<glyph unicode="&#xe902;" glyph-name="bankCard" d="M959.978-64h-895.999c-35.346 0-64 28.655-64 64v160h32v-160c0-17.671 14.326-31.999 32-31.999h432v80h32v-80h432c17.674 0 32 14.326 32 31.999v160h32v-160c-0.001-35.345-28.654-64-64.001-64zM847.978 735.999c53.020 0 95.999-42.978 95.999-95.998v-384c0-53.021-42.981-96.001-95.999-96.001h-671.999c-53.020 0-95.999 42.981-95.999 96.001v384c0 53.021 42.981 95.998 95.999 95.998h671.999zM175.979 192.002h671.999c35.346 0 64 28.655 64 64v304h-799.998v-304c0-35.345 28.654-64 64-64zM111.979 592.003h799.998v31.999h-799.998v-31.999zM114.242 655.999h795.474c-7.138 27.557-31.951 48.001-61.737 48.001h-672c-29.787 0-54.6-20.445-61.737-48.001zM479.979 432.001h-255.999v32h255.999v-32zM415.978 336.001h-191.999v32.002h192v-32.002zM735.978 464.001c35.346 0 64-28.653 64-64s-28.655-64-64-64-64 28.655-64 64c-0.001 35.346 28.654 64 64 64zM735.978 368.003c17.674 0 32 14.325 32 31.999 0 17.671-14.326 32-32 32s-32-14.328-32-32c0-17.675 14.326-31.999 32-31.999zM991.978 896c0 17.671-14.326 32-32 32h-432v-80h-32v80h-431.999c-17.674 0-32-14.328-32-32v-160.001h-32v160.001c0 35.347 28.655 64 64 64h896c35.347 0 64-28.653 64-64v-160.001h-32v160.001z" />
<glyph unicode="&#xe903;" glyph-name="bucket" d="M511.979 937.154c48.999 0 76.615-16.108 79.828-22.846-3.213-6.738-30.829-22.846-79.828-22.846s-76.615 16.108-79.828 22.846c3.212 6.739 30.829 22.846 79.828 22.846zM511.979 960c-56.778 0-102.806-20.457-102.806-45.692s46.028-45.692 102.806-45.692 102.806 20.457 102.806 45.692-46.028 45.692-102.806 45.692v0zM511.979-68.065c-221.409 0-388.381 79.124-388.381 184.039l0.023 545.329c-0.023 77.897 100.721 145.436 256.626 172.494 16.756 2.906 28.926 17.134 28.926 33.828v46.683h22.846v-46.684c0-27.832-20.136-51.526-47.867-56.339-142.184-24.675-237.707-84.774-237.707-149.547v-545.764c0-88.884 163.982-161.193 365.534-161.193s365.534 72.309 365.534 161.193l-0.023 545.329c0.023 65.208-95.5 125.307-237.684 149.982-27.732 4.814-47.867 28.507-47.867 56.339v46.684h22.846v-46.684c0-16.694 12.17-30.922 28.926-33.828 155.906-27.057 256.648-94.596 256.648-172.058v-545.764c0-104.914-166.972-184.039-388.381-184.039zM511.979 667.572c-131.698 0-252.777 25.183-332.192 69.096l11.066 19.99c75.007-41.476 195.061-66.24 321.126-66.24s246.117 24.765 321.126 66.24l11.066-19.99c-79.415-43.912-200.493-69.096-332.192-69.096zM511.979 17.886c-168.812 0-319.954 42.289-385.056 107.737l16.197 16.108c60.094-60.406 208.324-100.999 368.859-100.999s308.765 40.594 368.859 100.999l16.197-16.108c-65.102-65.447-216.244-107.737-385.056-107.737zM511.979 543.32c-168.812 0-319.954 42.284-385.056 107.725l16.197 16.108c60.094-60.406 208.324-100.988 368.859-100.988s308.765 40.582 368.859 100.988l16.197-16.108c-65.102-65.442-216.244-107.725-385.056-107.725z" />
<glyph unicode="&#xe904;" glyph-name="cardBag" d="M927.961 16.018h-831.965c-53.019 0-95.996 42.979-95.996 95.997v383.982c0 53.017 42.978 95.999 95.996 95.999v79.995h63.998v127.993h47.998v79.997h639.974v-79.997h47.998v-127.993h47.998v-81.608c45.36-7.652 79.997-46.849 79.997-94.387v-383.982c-0.001-53.019-42.98-95.997-95.997-95.997zM95.995 559.997c-35.346 0-63.998-28.654-63.998-63.999v-47.998h63.998v111.997zM815.966 815.986c0 17.671-14.326 31.999-31.999 31.999h-511.979c-17.672 0-31.999-14.327-31.999-31.999v-16.001h575.976v16.001zM863.963 735.988c0 17.672-14.326 32-31.999 32h-607.974c-17.672 0-31.999-14.327-31.999-32v-63.996h671.971v63.996zM911.961 607.995c0 17.672-14.326 31.999-31.999 31.999h-719.97c-17.672 0-31.999-14.326-31.999-31.999v-159.995h783.967v159.995zM991.958 495.998c0 29.787-20.444 54.6-47.998 61.737v-109.734h47.998v47.997zM991.958 416.003h-959.959v-303.987c0-35.344 28.652-63.998 63.998-63.998h831.965c35.344 0 63.998 28.654 63.998 63.998v303.987zM447.981 512.001h-255.989v31.997h255.989v-31.997zM703.97 512.001h-63.998v31.997h63.998v-31.997zM831.965 512.001h-63.998v31.997h63.998v-31.997zM463.98 703.991h-207.991v31.997h207.991v-31.997zM783.967 703.991h-63.998v31.997h63.998v-31.997z" />
<glyph unicode="&#xe905;" glyph-name="courier" d="M56.867 960h227.556v-22.755h-227.556v22.755zM739.534 823.455h227.556v-22.755h-227.556v22.755zM170.646 891.722h796.444v-22.755h-796.444v22.755zM56.867-41.244h455.111v-22.755h-455.111v22.755zM276.834 15.656h455.111v-22.755h-455.111v22.755zM56.867 129.445h910.222v-22.755h-910.222v22.755zM159.267 174.923h-91.022c-6.289 0-11.378 5.089-11.378 11.378s5.089 11.378 11.378 11.378h91.022c6.289 0 11.378-5.089 11.378-11.378s-5.089-11.378-11.378-11.378zM749.012 174.923h-489.245c-6.289 0-11.378 5.089-11.378 11.378s5.089 11.378 11.378 11.378h489.245c6.289 0 11.378-5.089 11.378-11.378s-5.090-11.378-11.378-11.378zM212.368 129.411c-31.366 0-56.889 25.522-56.889 56.889s25.522 56.889 56.889 56.889 56.889-25.522 56.889-56.889-25.522-56.889-56.889-56.889zM212.368 220.433c-18.823 0-34.133-15.311-34.133-34.133s15.311-34.133 34.133-34.133 34.133 15.311 34.133 34.133c-0.001 18.823-15.312 34.133-34.133 34.133zM796.423 129.411c-31.366 0-56.889 25.522-56.889 56.889s25.522 56.889 56.889 56.889 56.889-25.522 56.889-56.889-25.522-56.889-56.889-56.889zM796.423 220.433c-18.823 0-34.133-15.311-34.133-34.133s15.311-34.133 34.133-34.133c18.822 0 34.133 15.311 34.133 34.133s-15.312 34.133-34.133 34.133zM637.145 174.923c-6.289 0-11.378 5.089-11.378 11.378v557.522h-546.145v-557.522c0-6.289-5.089-11.378-11.378-11.378s-11.378 5.089-11.378 11.378v568.899c0 6.289 5.089 11.378 11.378 11.378h568.9c6.289 0 11.378-5.089 11.378-11.378v-568.9c0-6.288-5.089-11.377-11.377-11.377zM682.667 315.734c-6.289 0-11.378 5.089-11.378 11.378v284.444c0 6.289 5.089 11.378 11.378 11.378s11.378-5.089 11.378-11.378v-284.444c0-6.289-5.089-11.378-11.378-11.378zM955.712 174.923h-113.778c-6.289 0-11.378 5.089-11.378 11.378s5.089 11.378 11.378 11.378h102.4v201.321l-136.889 202.6h-124.778c-6.289 0-11.378 5.089-11.378 11.378s5.089 11.378 11.378 11.378h130.823c3.778 0 7.312-1.878 9.423-5.011l142.221-210.501c1.278-1.878 1.956-4.1 1.956-6.367v-216.178c0-6.288-5.088-11.377-11.377-11.377z" />
<glyph unicode="&#xe906;" glyph-name="finance" d="M511.979-63.979c-282.757 0-511.979 229.222-511.979 511.976 0 282.759 229.222 511.981 511.979 511.981s511.979-229.222 511.979-511.981c0-282.755-229.222-511.976-511.979-511.976zM511.979 917.314c-259.193 0-469.314-210.121-469.314-469.316 0-259.193 210.121-469.314 469.314-469.314s469.314 210.121 469.314 469.314c0 259.195-210.121 469.316-469.314 469.316zM725.303 490.665v-42.665h-191.993v-85.327h191.992v-42.667h-191.992v-213.325h-42.665v213.325h-191.992v42.667h191.992v85.327h-191.992v42.665h183.156l-176.908 176.908 30.168 30.168 177.68-177.682 198.379 178.543 28.345-31.89-195.608-176.048h181.437z" />
<glyph unicode="&#xe907;" glyph-name="fix" d="M511.977-64c-45.797 0-90.155 6.101-132.397 17.38l21.147 21.147c35.745-8.369 72.955-12.936 111.252-12.936 268.639 0 486.413 217.776 486.413 486.413 0 38.297-4.566 75.507-12.935 111.255l21.14 21.14c11.279-42.244 17.38-86.6 17.38-132.399 0-282.769-229.23-512-512-512zM511.979 934.416c-268.637 0-486.412-217.775-486.412-486.412 0-38.405 4.591-75.717 13.005-111.556l-21.131-21.131c-11.329 42.329-17.461 86.781-17.461 132.683 0 282.768 229.23 511.999 511.998 511.999 45.902 0 90.356-6.133 132.685-17.462l-21.126-21.126c-35.839 8.416-73.152 13.005-111.558 13.005zM240.666-28.299c-20.238-0.012-40.662 3-60.65 9.15-4.3 1.325-7.575 4.8-8.662 9.15-1.075 4.362 0.2 8.962 3.375 12.137l83.825 83.825c29.938 29.95 29.938 78.663 0 108.613-29.95 29.95-78.663 29.975-108.613 0l-83.825-83.825c-3.162-3.162-7.775-4.45-12.137-3.375-4.35 1.088-7.825 4.362-9.15 8.662-22.425 72.825-2.962 151.463 50.812 205.237 51.925 51.95 127.062 71.887 197.762 52.962l292.337 292.337c-18.913 70.687 1.025 145.825 52.962 197.774 53.775 53.775 132.413 73.25 205.25 50.8 4.288-1.325 7.562-4.8 8.65-9.15 1.075-4.362-0.2-8.962-3.375-12.137l-83.825-83.825c-29.938-29.95-29.938-78.663 0-108.613 29.938-29.925 78.65-29.95 108.613 0l83.825 83.825c3.175 3.162 7.749 4.45 12.137 3.375 4.35-1.088 7.825-4.362 9.15-8.662 22.425-72.825 2.962-151.463-50.812-205.237-51.938-51.938-127.050-71.849-197.762-52.962l-292.337-292.337c18.913-70.687-1.025-145.825-52.962-197.762-39.013-39.013-91.112-59.963-144.587-59.963zM208.916 0.125c57.437-10.263 116.425 7.813 158.237 49.638 47.050 47.050 64.075 115.875 44.437 179.612-1.388 4.525-0.163 9.463 3.188 12.813l303.013 303.012c3.363 3.363 8.325 4.55 12.813 3.188 63.774-19.675 132.562-2.6 179.612 44.437 41.825 41.825 59.925 100.862 49.638 158.237l-67.738-67.738c-39.925-39.95-104.888-39.925-144.812 0s-39.925 104.887 0 144.812l67.738 67.738c-57.4 10.225-116.4-7.813-158.237-49.625-47.050-47.063-64.075-115.887-44.437-179.625 1.388-4.525 0.163-9.463-3.188-12.813l-303.013-303.010c-3.363-3.363-8.288-4.575-12.813-3.188-63.788 19.663-132.574 2.6-179.612-44.437-41.825-41.825-59.925-100.862-49.638-158.237l67.738 67.738c39.938 39.925 104.9 39.9 144.812 0 39.925-39.925 39.925-104.887 0-144.812l-67.738-67.739z" />
<glyph unicode="&#xe908;" glyph-name="fixBox" d="M511.979 960c-282.769 0-511.999-229.23-511.999-512.001 0-282.767 229.23-511.999 511.999-511.999s511.999 229.232 511.999 511.999c0 282.771-229.23 512.001-511.999 512.001zM511.979-31.998c-265.096 0-479.999 214.904-479.999 479.997 0 265.099 214.904 480.001 479.999 480.001s479.999-214.902 479.999-480.001c0-265.094-214.904-479.997-479.999-479.997zM767.978 640.001h-64c0 35.346-28.655 64-64 64h-256.001c-35.347 0-64-28.655-64-64h-64c-35.346 0-64-28.655-64-64.002v-319.998c0-35.346 28.655-64 64-64h511.999c35.347 0 64 28.655 64 64v319.998c0 35.347-28.653 64.002-64 64.002zM383.978 672.001h255.999c17.674 0 32-14.326 32-32h-319.999c0 17.674 14.326 32 32 32zM799.978 256.001c0-17.674-14.326-32.002-32-32.002h-511.999c-17.674 0-32 14.328-32 32.002v191.998h64v-31.999h95.999v31.999h255.999v-31.999h95.999v31.999h64v-191.998zM319.979 447.999v32.002h32v-32.002h-32zM671.978 447.999v32.002h32v-32.002h-32zM799.978 480.001h-64v32.002h-95.999v-32.002h-256.001v32.002h-95.999v-32.002h-64v95.998c0 17.676 14.326 32.002 32 32.002h511.999c17.674 0 32-14.326 32-32.002v-95.998z" />
<glyph unicode="&#xe909;" glyph-name="home" d="M864.648-64h-132.251c-85.067 0-154.293 69.698-154.293 155.37h44.084c0-61.369 49.443-111.286 110.209-111.286h132.251c60.766 0 110.209 49.917 110.209 111.286v430.44c0 30.996-12.937 60.809-35.517 81.839l-329.917 282.024c-43.201 40.144-151.689 40.144-194.201 0.603l-331.317-283.251c-21.87-20.406-34.807-50.219-34.807-81.215v-430.44c0-61.369 49.443-111.286 110.209-111.286h44.084c60.766 0 110.209 49.917 110.209 111.286v155.542c0 83.819 65.975 177.584 154.293 177.584h88.167c88.318 0 154.293-93.765 154.293-177.584v-133.328h-44.084v133.328c0 60.464-49.164 133.5-110.209 133.5h-88.167c-61.045 0-110.209-73.035-110.209-133.5v-155.542c0-85.67-69.226-155.37-154.293-155.37h-44.084c-85.067 0-154.293 69.698-154.293 155.37v430.44c0 43.179 18.059 84.767 49.552 114.084l331.339 283.272c58.548 54.545 193.598 54.545 252.835-0.603l329.94-282.046c32.201-29.942 50.262-71.528 50.262-114.709v-430.44c-0.001-85.669-69.226-155.369-154.294-155.369z" />
<glyph unicode="&#xe90a;" glyph-name="houseKeeping" d="M318.289 398.72v0c3.987 0 7.92-1.054 11.375-3.048l345.424-199.431c7.512-4.337 11.856-12.41 11.337-21.069l-9.132-152.356c-0.805-13.427-12.218-21.45-22.788-21.45-3.933 0-7.736 1.045-11.304 3.105l-463.669 267.7c-9.917 5.725-11.253 15.212-11.368 19.025s0.652 13.363 10.209 19.672l127.378 84.087c3.731 2.463 8.067 3.765 12.539 3.765zM318.289 421.475c-8.752 0-17.488-2.521-25.075-7.529l-127.378-84.087c-28.236-18.64-26.984-60.478 2.318-77.396l463.669-267.699c7.31-4.221 15.089-6.153 22.683-6.153 22.84 0 43.984 17.498 45.503 42.844l9.133 152.356c1.031 17.206-7.746 33.518-22.674 42.137l-345.425 199.431c-7.055 4.073-14.911 6.097-22.753 6.097v0zM573.732 160.398l21.977-5.889-29.442-109.886-21.977 5.889 29.442 109.886zM289.359 331.361l16.089-16.089-80.444-80.444-16.089 16.089 80.444 80.444zM821.713 894.634c5.939 0 11.822-1.585 17.015-4.582 7.896-4.559 13.543-11.919 15.903-20.726s1.149-18.005-3.41-25.901l-200.155-346.678 12.595-12.349c53.136-52.101 73.807-129.001 53.945-200.691-2.763-9.97-11.883-16.934-22.18-16.934-3.958 0-7.755 1.033-11.283 3.070l-305.24 176.231c-6.133 3.541-10.197 9.6-11.152 16.625-0.968 7.118 1.375 14.147 6.427 19.286 38.167 38.819 91.438 61.084 146.151 61.084 18.484 0 36.863-2.508 54.625-7.456l16.993-4.733 200.154 346.678c6.082 10.534 17.428 17.077 29.612 17.076v0zM821.714 917.391c-19.662 0.001-38.783-10.202-49.32-28.454l-191.335-331.403c-20.015 5.575-40.451 8.29-60.73 8.29-60.209 0-119.139-23.909-162.377-67.886-20.941-21.3-16.294-56.637 9.574-71.571l305.24-176.23c7.235-4.177 15.022-6.118 22.661-6.118 19.674 0 38.364 12.878 44.11 33.613 22.013 79.453-1.063 165.282-59.942 223.014l191.335 331.402c15.71 27.21 6.386 62.002-20.822 77.712-8.959 5.172-18.742 7.631-28.393 7.632v0zM56.867 960h455.111v-22.755h-455.111v22.755zM56.867 846.211h227.556v-22.755h-227.556v22.755zM853.312-41.244h113.777v-22.755h-113.777v22.755z" />
<glyph unicode="&#xe90b;" glyph-name="laundry" d="M511.979 691.194c-148.216 0-268.806 120.59-268.806 268.806h25.601c0-134.103 109.103-243.206 243.206-243.206s243.205 109.103 243.205 243.206h25.601c-0.001-148.216-120.592-268.806-268.807-268.806zM805.476 934.399c51.53 0 99.974-20.067 136.411-56.503s56.503-84.881 56.503-136.411v-202.973c0-51.53-20.066-99.974-56.503-136.411l-71.499-71.499v-176.086c0-106.374-86.541-192.914-192.914-192.914h-330.99c-106.373 0-192.914 86.541-192.914 192.914v176.085l-71.499 71.499c-36.437 36.437-56.503 84.881-56.503 136.411v202.973c0 51.53 20.066 99.975 56.503 136.411 36.437 36.437 84.882 56.503 136.411 56.503h586.995zM805.476 960h-586.995c-57.954 0-113.534-23.022-154.513-64.002v0c-40.979-40.979-64.002-96.56-64.002-154.513v-202.973c0-57.954 23.022-113.534 64.002-154.513l64.002-64.002v-165.482c0-120.683 97.832-218.515 218.515-218.515h330.988c120.683 0 218.515 97.832 218.515 218.515v165.481l64.002 64.002c40.979 40.979 64.002 96.559 64.002 154.513v202.973c0 57.954-23.022 113.534-64.002 154.513v0c-40.979 40.98-96.559 64.003-154.513 64.003v0zM127.969 704.007h25.601v-524.813h-25.601v524.813zM870.387 704.007h25.601v-524.813h-25.601v524.813zM166.37 156.814h25.601v-131.203h-25.601v131.203zM217.571 118.409h25.601v-131.203h-25.601v131.203zM268.772 92.806h25.601v-131.203h-25.601v131.203zM319.974 80.005h25.601v-131.203h-25.601v131.203zM371.175 67.203h25.601v-131.203h-25.601v131.203zM422.376 67.203h25.601v-131.203h-25.601v131.203zM473.577 67.203h25.601v-131.203h-25.601v131.203zM524.779 67.203h25.601v-131.203h-25.601v131.203zM575.98 67.203h25.601v-131.203h-25.601v131.203zM627.181 67.203h25.601v-131.203h-25.601v131.203zM678.382 80.005h25.601v-131.203h-25.601v131.203zM729.584 92.806h25.601v-131.203h-25.601v131.203zM780.785 118.409h25.601v-131.203h-25.601v131.203zM831.986 156.814h25.601v-131.203h-25.601v131.203z" />
<glyph unicode="&#xe90c;" glyph-name="mine" d="M804.55 325.728c107.832-81.211 180.978-206.031 192.956-348.39-6.634-14.17-13.985-27.921-21.846-41.337h-24.824c0 141.3-66.935 266.798-170.667 347.049l-9.651 7.998zM536.359 376.084v-2.462c-8.119 0.448-16.15 1.231-24.381 1.231-242.376 0-438.858-196.479-438.858-438.853h-24.823c-7.86 13.417-15.211 27.168-21.846 41.337 17.31 205.727 162.224 374.884 355.331 428.366-96.159 47.938-162.375 146.978-162.375 261.723 0 161.582 130.989 292.571 292.571 292.571s292.571-130.989 292.571-292.571c0.001-153.349-118.041-278.923-268.19-291.342zM511.979 911.238c-134.652 0-243.81-109.158-243.81-243.81s109.158-243.811 243.81-243.811 243.81 109.158 243.81 243.811c0 134.651-109.159 243.81-243.81 243.81z" />
<glyph unicode="&#xe90d;" glyph-name="myABC" d="M56.867-64v68.267h910.223v-68.267h-910.223zM944.337-18.487h-864.712v-22.758h864.712v22.758zM853.309 345.603h22.761v-307.201h-22.761v307.201zM762.291 38.401v648.531h22.754v-648.531h-22.754zM420.955 686.933h22.753v-420.978h-22.753v420.978zM534.736 686.933v-420.978h-22.753v420.978h22.753zM625.758 686.933v-420.978h-22.753v420.978h22.753zM420.955 38.401v182.041h204.802v-182.041h-22.753v159.286h-159.296v-159.286h-22.753zM329.933 38.401v648.531h22.758v-648.531h-22.758zM238.915 38.401v648.531h22.753v-648.531h-22.753zM170.642 777.955h682.668v-68.266h-682.668v68.266zM193.405 732.444h637.152v22.756h-637.152v-22.756zM739.534 800.713h-455.112v22.753h455.112v-22.753zM284.422 868.978h455.112v-22.754h-455.112v22.754zM170.642 38.401h-22.749v307.202h22.749v-307.202zM170.642 960h682.668v-68.265h-682.668v68.265zM193.405 914.487h637.152v22.76h-637.152v-22.76z" />
<glyph unicode="&#xe90e;" glyph-name="myBankCard" d="M841.933-64h-659.915c-62.833 0-113.775 50.941-113.775 113.776v45.513h22.753v-45.513c0-50.266 40.752-91.022 91.022-91.022h329.958v56.894h22.753v-56.894h307.204c50.27 0 91.018 40.756 91.018 91.022v45.513h22.762v-45.513c0-62.834-50.943-113.776-113.78-113.776zM216.151 709.684h614.403c62.834 0 113.78-50.934 113.78-113.774v-295.822c0-62.837-50.946-113.776-113.78-113.776h-614.403c-62.833 0-113.775 50.939-113.775 113.776v295.822c0 62.841 50.943 113.774 113.775 113.774zM216.151 209.070h614.403c50.272 0 91.027 40.746 91.027 91.022v193.418h-796.448v-193.417c0-50.277 40.748-91.023 91.018-91.023zM125.133 516.267h796.447v79.643h-796.447v-79.643zM918.596 618.668c-10.12 39.237-45.645 68.265-88.042 68.265h-614.403c-42.397 0-77.915-29.028-88.034-68.265h790.479zM386.821 379.733h-182.040v22.754h182.040v-22.754zM341.31 311.463h-136.53v22.76h136.528v-22.76zM796.422 402.487c25.133 0 45.512-20.375 45.512-45.513 0-25.134-20.378-45.513-45.512-45.513-25.139 0-45.512 20.377-45.512 45.513 0.001 25.138 20.374 45.513 45.512 45.513zM796.422 334.224c12.562 0 22.753 10.189 22.753 22.752 0 12.569-10.191 22.758-22.753 22.758-12.567 0-22.758-10.189-22.758-22.758 0.001-12.563 10.192-22.752 22.758-22.752zM932.951 846.224c0 50.269-40.747 91.024-91.018 91.024h-307.204v-56.894h-22.753v56.894h-329.958c-50.271 0-91.022-40.755-91.022-91.024v-45.509h-22.753v45.509c0 62.837 50.943 113.776 113.775 113.776h659.915c62.837 0 113.78-50.939 113.78-113.776v-45.509h-22.762v45.509z" />
<glyph unicode="&#xe90f;" glyph-name="myCoupons" d="M853.31-64h-682.664c-62.838 0-113.776 50.944-113.776 113.78v796.443c0 62.837 50.938 113.776 113.776 113.776h682.664c62.842 0 113.776-50.939 113.776-113.776v-796.443c-0.001-62.836-50.934-113.78-113.776-113.78zM944.337 846.224c0 50.269-40.755 91.024-91.026 91.024h-682.664c-50.271 0-91.022-40.755-91.022-91.024v-159.291h45.511v91.022c0 37.703 30.564 68.269 68.264 68.269h648.532c37.7 0 68.265-30.566 68.265-68.269v-91.022h34.14v159.291zM147.892 777.955v-91.022h739.55v91.022c0 25.14-20.373 45.512-45.511 45.512h-648.532c-25.133 0.001-45.507-20.372-45.507-45.512zM944.337 664.18h-864.712v-227.555h45.511v91.021c0 37.704 30.564 68.264 68.264 68.264h648.532c37.7 0 68.265-30.561 68.265-68.264v-91.021h34.14v227.555zM147.892 527.645v-91.021h739.55v91.021c0 25.134-20.373 45.512-45.511 45.512h-648.532c-25.133 0.001-45.507-20.377-45.507-45.512zM944.337 413.87h-864.712v-216.178h45.511v91.023c0 37.704 30.564 68.265 68.264 68.265h648.532c37.7 0 68.265-30.562 68.265-68.265v-91.023h34.14v216.178zM147.892 288.714v-91.023h739.55v91.023c0 25.132-20.373 45.509-45.511 45.509h-648.532c-25.133 0-45.507-20.377-45.507-45.509zM944.337 174.934h-864.712v-125.152c0-50.266 40.75-91.021 91.022-91.021h682.664c50.271 0 91.026 40.755 91.026 91.021v125.152zM375.448 243.204h-182.048v22.752h182.048v-22.752zM739.535 243.204h-45.511v22.752h45.511v-22.752zM830.552 243.204h-45.506v22.752h45.506v-22.752zM375.448 482.136h-182.048v22.752h182.048v-22.752zM739.535 482.136h-45.511v22.752h45.511v-22.752zM830.552 482.136h-45.506v22.752h45.506v-22.752zM375.448 732.443h-182.048v22.76h182.048v-22.76zM739.535 732.443h-45.511v22.76h45.511v-22.76zM830.552 732.443h-45.506v22.76h45.506v-22.76z" />
<glyph unicode="&#xe910;" glyph-name="myList" d="M853.309-64h-682.668c-62.834 0-113.775 50.939-113.775 113.776v796.447c0 62.837 50.941 113.776 113.775 113.776h682.668c62.841 0 113.78-50.939 113.78-113.776v-796.446c0-62.837-50.938-113.777-113.78-113.777zM944.337 846.224c0 50.269-40.756 91.024-91.027 91.024h-682.668c-50.267 0-91.018-40.755-91.018-91.024v-796.446c0-50.266 40.751-91.021 91.018-91.021h682.668c50.27 0 91.027 40.755 91.027 91.021v796.446zM398.202 118.047h455.107v-22.758h-455.107v22.758zM170.642 345.598h682.668v-22.752h-682.668v22.752zM170.642 573.155h682.668v-22.756h-682.668v22.756zM170.642 800.711h682.668v-22.756h-682.668v22.756zM284.422 95.289h-113.779v22.758h113.78v-22.758z" />
<glyph unicode="&#xe911;" glyph-name="myPoints" d="M1023.98 447.998c0-282.765-229.234-511.998-512.001-511.998-137.29 0-261.858 54.142-353.8 142.108l-40.42-40.42-16.091 16.089 40.421 40.421c-87.967 91.94-142.112 216.51-142.112 353.8 0 282.768 229.235 512.002 512.002 512.002 137.29 0 261.861-54.143 353.802-142.111l40.421 40.422 16.087-16.093-40.419-40.419c87.966-91.941 142.11-216.511 142.11-353.802zM865.767 785.697l-23.931-23.931-16.091 16.088 23.933 23.933c-87.816 83.848-206.697 135.441-337.699 135.441-270.197 0-489.227-219.039-489.227-489.23 0-131.002 51.591-249.882 135.439-337.698l23.932 23.933 16.089-16.088-23.93-23.935c87.815-83.845 206.695-135.437 337.698-135.437 270.192 0 489.226 219.036 489.226 489.225-0.001 131.003-51.592 249.882-135.439 337.699zM701.994 585.708l0.012 0.044c-0.002-0.008-0.003-0.016-0.004-0.024-0.002-0.006-0.005-0.013-0.008-0.020zM548.349 803.586l-0.148-0.551c-87.421 17.331-174.486-35.739-197.886-123.074-23.403-87.333 25.467-176.825 109.84-205.518l44.022 164.287-44.17-164.845 109.901-29.449-0.149-0.558c96.509-31.99 152.585-133.919 125.929-233.389-26.652-99.472-126.183-159.713-225.755-139.159l-0.149-0.557-109.898 29.448 5.889 21.979 109.896-29.448 88.346 329.704-98.88 26.494c-0.010 0.002-0.021 0.004-0.032 0.007s-0.020 0.007-0.030 0.010l-10.962 2.937 0.148 0.555c-96.502 31.99-152.579 133.923-125.927 233.395 26.657 99.475 126.185 159.708 225.755 139.157l0.149 0.558 109.902-29.449-5.89-21.981-109.901 29.446zM563.874 421.91l-88.053-328.612c87.426-17.335 174.494 35.739 197.897 123.073 23.403 87.34-25.463 176.841-109.844 205.539z" />
<glyph unicode="&#xe912;" glyph-name="near" d="M-0.021 773.819h46.545v139.636h139.636v46.545h-186.181v-186.181zM977.432 122.182v-139.634h-139.636v-46.548h186.181v186.182h-46.545zM512.624 341.496c-60.796 0-110.261 49.454-110.261 110.25s49.466 110.25 110.261 110.25 110.25-49.454 110.25-110.25-49.455-110.25-110.25-110.25zM512.624 515.45c-35.136 0-63.716-28.569-63.716-63.705s28.58-63.705 63.716-63.705c35.125 0 63.705 28.568 63.705 63.705s-28.58 63.705-63.705 63.705zM139.613 54.978c-6.102 0-12.068 2.409-16.489 6.863-5.91 5.932-8.17 14.568-5.932 22.637l162.375 584.909c2.204 7.954 8.466 14.136 16.455 16.273l582.351 154.591c8.023 2.137 16.591-0.182 22.454-6.091 5.875-5.886 8.148-14.454 5.977-22.477l-156.557-579.022c-2.159-7.978-8.375-14.205-16.341-16.386l-588.169-160.477c-2.023-0.545-4.080-0.819-6.126-0.819zM320.852 644.091l-147.864-532.613 535.806 146.181 142.557 527.249-530.499-140.817z" />
<glyph unicode="&#xe913;" glyph-name="nearBank" d="M511.979-64c-282.769 0-511.999 229.232-511.999 511.999 0 282.771 229.23 512.001 511.999 512.001s511.999-229.23 511.999-512.001c0-282.767-229.23-511.999-511.999-511.999zM511.979 928c-265.096 0-479.999-214.902-479.999-480.001 0-265.094 214.904-479.997 479.999-479.997s479.999 214.904 479.999 479.997c0 265.099-214.904 480.001-479.999 480.001zM319.979 624c0 106.038 85.962 192 192 192s192-85.962 192-192c0-106.040-192-336-192-336s-192 229.959-192 336zM511.979 784.001c-88.367 0-160-74.344-160-166.056 0-91.707 160-281.943 160-281.943s159.999 190.237 159.999 281.943c0 91.712-71.632 166.056-159.999 166.056zM415.978 624c0 53.017 42.981 95.998 95.999 95.998s95.999-42.981 95.999-95.998c0-53.021-42.981-95.999-95.999-95.999s-95.999 42.979-95.999 95.999zM575.978 624c0 35.347-28.655 64-64 64s-64-28.653-64-64 28.655-64 64-64 64 28.653 64 64zM511.979 240.002c70.693 0 128-28.653 128-64s-57.307-64-128-64-128 28.654-128 63.999c0 35.347 57.307 64.001 128 64.001zM511.979 144.001c53.020 0 95.999 14.326 95.999 32 0 17.672-42.981 32-95.999 32s-95.999-14.328-95.999-32c-0.001-17.674 42.98-32 95.999-32z" />
<glyph unicode="&#xe914;" glyph-name="news" d="M853.312-64h-682.666c-62.834 0-113.776 50.941-113.776 113.776v443.734c0 42.089 22.916 78.753 56.89 98.435v254.278c0 62.837 50.938 113.776 113.776 113.776h568.891c62.834 0 113.775-50.939 113.775-113.776v-254.278c33.975-19.682 56.887-56.346 56.887-98.435v-443.733c0-62.835-50.933-113.777-113.776-113.777zM887.445 846.224c0 50.269-40.752 91.024-91.019 91.024h-568.891c-50.272 0-91.022-40.755-91.022-91.024v-409.602h7.732l367.696-212.29 367.345 212.29h8.158v409.602zM944.335 493.511c0 28.73-13.343 54.31-34.133 70.992v-127.881h-4.901l4.996-8.661-398.286-230.164-1.445 2.504-0.629-1.088-394.138 227.558 5.689 9.851h-7.729v127.883c-20.789-16.682-34.132-42.263-34.132-70.994v-443.733c0-50.266 40.747-91.022 91.019-91.022h682.667c50.272 0 91.023 40.756 91.023 91.022v443.733zM591.623 470.758h227.556v-22.76h-227.556v22.76zM204.777 698.314h614.402v-22.758h-614.402v22.758zM204.777 857.602h227.56v-22.76h-227.56v22.76zM705.404 561.779h-500.627v22.752h500.627v-22.752z" />
<glyph unicode="&#xe915;" glyph-name="notice" d="M511.979 755.195c-56.468 0-102.402 45.934-102.402 102.402s45.934 102.402 102.402 102.402 102.402-45.934 102.402-102.402-45.934-102.402-102.402-102.402zM511.979 937.244c-43.912 0-79.646-35.734-79.646-79.646s35.734-79.646 79.646-79.646 79.646 35.734 79.646 79.646-35.734 79.646-79.646 79.646zM557.49 846.22c-6.289 0-11.378 5.089-11.378 11.378 0 18.823-15.312 34.134-34.134 34.134-6.289 0-11.378 5.089-11.378 11.378s5.089 11.378 11.378 11.378c31.367 0 56.89-25.522 56.89-56.89 0.001-6.29-5.088-11.379-11.377-11.379zM511.979-64c-56.468 0-102.402 45.934-102.402 102.402h22.756c0-43.912 35.734-79.646 79.646-79.646s79.646 35.734 79.646 79.646h22.756c0-56.468-45.934-102.402-102.402-102.402zM955.721 27.024h-887.486c-6.289 0-11.378 5.089-11.378 11.378s5.089 11.378 11.378 11.378c44.501 0 79.646 0 79.646 193.438v171.248c0 200.427 163.337 363.486 364.096 363.486s364.096-163.059 364.096-363.486v-171.248c0-193.438 35.145-193.438 79.646-193.438 6.289 0 11.378-5.089 11.378-11.378s-5.088-11.378-11.377-11.378zM136.303 49.78h751.349c-22.078 25.723-34.334 79.936-34.334 193.438v171.248c0 187.882-153.125 340.729-341.34 340.729s-341.341-152.847-341.341-340.729v-171.248c0-113.502-12.255-167.715-34.334-193.438zM785.051 403.088c-6.289 0-11.378 5.089-11.378 11.378 0 143.959-117.392 261.083-261.694 261.083-6.289 0-11.378 5.089-11.378 11.378s5.089 11.378 11.378 11.378c156.848 0 284.45-127.325 284.45-283.84 0-6.289-5.089-11.378-11.378-11.378z" />
<glyph unicode="&#xe916;" glyph-name="passWord" d="M76.779-64v639.997h128v76.803h1.354c-0.855 8.433-1.354 16.96-1.354 25.602 0 155.52 137.538 281.597 307.2 281.597s307.2-126.077 307.2-281.597c0-8.643-0.499-17.17-1.354-25.602h1.354v-76.802h128v-639.997h-870.4zM767.978 678.403c0 127.245-114.616 230.399-255.999 230.399s-256.001-103.154-256.001-230.399c0-8.668 0.643-17.193 1.7-25.602h-1.7v-76.802h512v76.802h-1.7c1.057 8.41 1.7 16.934 1.7 25.602zM895.978 524.8h-767.999v-537.602h767.999v537.602zM537.579 217.597h-51.2v179.202h51.2v-179.202zM537.579 89.6h-51.2v51.2h51.2v-51.2z" />
<glyph unicode="&#xe917;" glyph-name="payForLife" d="M511.979-64c-282.769 0-511.999 229.232-511.999 511.999 0 282.771 229.23 512.001 511.999 512.001s511.999-229.23 511.999-512.001c0-282.767-229.23-511.999-511.999-511.999zM511.979 928c-265.096 0-479.999-214.902-479.999-480.001 0-265.094 214.904-479.997 479.999-479.997s479.999 214.904 479.999 479.997c0 265.099-214.904 480.001-479.999 480.001zM511.979 176.001c-159.058 0-287.999 57.308-287.999 127.998 0 5.432 1.010 10.747 2.487 16.001h33.354c-2.339-5.215-3.84-10.538-3.84-16.001 0-53.017 114.615-95.998 255.999-95.998s255.999 42.981 255.999 95.998c0 5.464-1.501 10.787-3.838 16.001h33.351c1.477-5.255 2.488-10.57 2.488-16.001 0-70.689-128.942-127.998-287.999-127.998zM511.979 320.001c-159.058 0-287.999 57.308-287.999 127.998 0 5.432 1.010 10.747 2.487 16.001h33.354c-2.339-5.215-3.84-10.538-3.84-16.001 0-53.020 114.615-95.998 255.999-95.998s255.999 42.979 255.999 95.998c0 5.464-1.501 10.788-3.838 16.001h33.351c1.477-5.255 2.488-10.57 2.488-16.001 0-70.689-128.942-127.998-287.999-127.998zM511.979 464.001c-159.058 0-287.999 57.305-287.999 128.001 0 70.689 128.942 127.996 287.999 127.996s287.999-57.307 287.999-127.996c0-70.696-128.942-128.001-287.999-128.001zM511.979 688c-141.384 0-255.999-42.981-255.999-95.998 0-53.021 114.615-96.004 255.999-96.004s255.999 42.982 255.999 96.004c0 53.019-114.616 95.998-255.999 95.998z" />
<glyph unicode="&#xe918;" glyph-name="propertyPayment" d="M898.822-54.469v25.501c27.181 15.746 45.514 45.077 45.514 78.745v796.446c0 50.268-40.755 91.023-91.025 91.023h-682.668c-50.267 0-91.018-40.755-91.018-91.023v-796.445c0-50.267 40.751-91.023 91.018-91.023h204.802v-22.753h-204.802c-62.833 0-113.775 50.939-113.775 113.776v796.445c0 62.837 50.943 113.776 113.775 113.776h682.668c62.841 0 113.78-50.939 113.78-113.776v-796.445c-0.001-46.645-28.098-86.683-68.269-104.247zM637.133 436.621c113.108 0 204.8-40.751 204.8-91.021s-91.692-91.022-204.8-91.022-204.8 40.752-204.8 91.022 91.693 91.021 204.8 91.021zM637.133 277.332c100.54 0 182.044 30.564 182.044 68.268 0 37.703-81.504 68.267-182.044 68.267s-182.044-30.564-182.044-68.267c0-37.704 81.504-68.268 182.044-68.268zM457.82 197.689c-1.664-3.708-2.73-7.494-2.73-11.378 0-37.704 81.504-68.267 182.044-68.267s182.044 30.563 182.044 68.267c0 3.884-1.067 7.67-2.729 11.378h23.716c1.050-3.735 1.769-7.516 1.769-11.378 0-50.269-91.692-91.022-204.8-91.022s-204.8 40.753-204.8 91.022c0 3.862 0.718 7.642 1.768 11.378h23.718zM457.82 38.4c-1.664-3.708-2.73-7.494-2.73-11.379 0-37.702 81.504-68.266 182.044-68.266s182.044 30.564 182.044 68.266c0 3.885-1.067 7.671-2.729 11.379h23.716c1.050-3.736 1.769-7.516 1.769-11.379 0-50.268-91.692-91.021-204.8-91.021s-204.8 40.753-204.8 91.021c0 3.863 0.718 7.642 1.768 11.379h23.718zM284.422 95.289h-113.779v22.758h113.78v-22.758zM170.642 345.598h113.777v-22.751h-113.777v22.751zM170.642 800.712h682.668v-22.758h-682.668v22.758zM853.309 550.398h-682.668v22.758h682.668v-22.758z" />
<glyph unicode="&#xe919;" glyph-name="propertyServices" d="M511.979-64c-282.769 0-511.999 229.232-511.999 511.999 0 282.771 229.23 512.001 511.999 512.001s511.999-229.23 511.999-512.001c0-282.767-229.23-511.999-511.999-511.999zM511.979 928c-265.096 0-479.999-214.902-479.999-480.001 0-265.094 214.904-479.997 479.999-479.997s479.999 214.904 479.999 479.997c0 265.099-214.904 480.001-479.999 480.001zM751.978 640.001h95.999v-95.999h-95.999v95.999zM783.977 575.999h32v32.002h-32v-32.002zM733.265 368.003c-8.836 0-16 7.163-16 15.998v0c-15.427 99.639-101.323 175.999-205.288 175.999s-189.86-76.36-205.288-175.999v0c0-8.835-7.165-15.998-16-15.998s-16 7.163-16 15.998c0 4.184 0.477 6.055 1.611 10.776 20.227 112.062 117.786 197.225 235.677 197.225s215.448-85.163 235.675-197.224c0.794-4.169 1.613-6.592 1.613-10.777 0.002-8.835-7.161-15.998-15.998-15.998zM463.978 768h95.999v-95.999h-95.999v95.999zM495.978 704.001h32v31.999h-32v-31.999zM175.979 655.999h95.999v-95.998h-95.999v95.998zM207.979 592.003h32v31.999h-32v-31.999zM751.978 272.002h-479.999v31.999h479.999v-31.999zM639.978 176.001h-255.999v32h255.999v-32z" />
<glyph unicode="&#xe91a;" glyph-name="QRCode" d="M383.978 384.001h-319.999c-35.346 0-64-28.653-64-64v-320.001c0-35.346 28.655-64 64-64h319.999c35.347 0 64 28.655 64 64v320c0.001 35.348-28.653 64.001-64 64.001zM415.978 0.001c0-17.671-14.326-31.999-32-31.999h-319.999c-17.674 0-32 14.326-32 31.999v320c0 17.671 14.326 32 32 32h319.999c17.674 0 32-14.328 32-32v-320zM47.979 960h-32v-351.999h32v351.999zM207.979 960h-32v-351.999h32v351.999zM847.978 960h-32v-351.999h32v351.999zM1007.977 960h-32v-351.999h32v351.999zM527.978 960h-32v-351.999h32v351.999zM367.979 960h-32v-351.999h32v351.999zM687.978 960h-32v-351.999h32v351.999zM255.979 256.001h-64c-35.347 0-64-28.655-64-64v-64c0-35.347 28.653-64 64-64h64c35.346 0 64 28.653 64 64v64c0 35.345-28.655 64-64 64zM287.979 128.002c0-17.671-14.326-32-32-32h-64c-17.674 0-32 14.328-32 32v64c0 17.672 14.326 31.999 32 31.999h64c17.674 0 32-14.326 32-31.999v-64zM895.977 384.001h-64v-32h64v32zM831.978 80h64v32.002h-64v-32.002zM831.978 208.001h64v32h-64v-32zM991.978 192.002h32v192h-32v-192zM575.978 128.002h-32v-192.001h192v32.002h-160v159.999zM-0.020 512.003v-32.002h1023.998v32.002h-1023.998zM703.978 80h32v160.002h-32v-160.002zM607.978 240.002h-64v-32h64v32zM831.978-64h192v32.002h-192v-32.002zM543.978 352.002h192v32h-192v-32z" />
<glyph unicode="&#xe91b;" glyph-name="restaurant" d="M909.229 634.178c10.33 0 20.126-4.282 26.877-11.748 6.37-7.045 9.364-16.023 8.429-25.279l-61.364-607.842c-1.759-17.423-16.937-30.561-35.306-30.561h-229.144c-18.369 0-33.547 13.138-35.306 30.561l-61.364 607.842c-0.934 9.256 2.060 18.233 8.43 25.279 6.75 7.466 16.546 11.748 26.876 11.748h351.871zM909.229 656.926h-351.871c-34.397 0-61.296-28.811-57.94-62.059l61.364-607.842c2.923-28.951 27.987-51.025 57.94-51.025h229.144c29.952 0 55.017 22.074 57.94 51.025l61.364 607.842c3.357 33.249-23.541 62.059-57.94 62.059v0zM347.595 492.808c26.083 0 51.87-3.626 76.646-10.776 13.29-3.835 22.962-14.961 24.643-28.344l20.129-160.291c1.177-9.375-1.686-18.518-8.064-25.745-6.762-7.664-16.659-12.059-27.154-12.059h-311.636c-11.415 0-21.838 5.046-28.597 13.842-6.336 8.247-8.451 18.674-5.803 28.609 30.564 114.675 137.414 194.764 259.836 194.764zM347.595 515.557c-135.495 0-249.368-89.911-281.819-211.653-9.576-35.926 18.173-71.059 56.383-71.059h311.636c34.948 0 62.021 29.695 57.79 63.388l-20.129 160.291c-2.794 22.248-18.785 40.98-40.907 47.365-26.289 7.588-54.129 11.67-82.954 11.67v0zM451.546 181.821c17.946 0 33.086-12.804 35.218-29.783 1.177-9.375-1.686-18.518-8.064-25.745-6.761-7.664-16.659-12.059-27.154-12.059h-334.321c-19.523 0-36.13 13.381-37.808 30.462-0.919 9.357 2.081 18.379 8.449 25.402 6.755 7.451 16.543 11.724 26.856 11.724h336.824zM451.546 204.57h-336.824c-34.039 0-61.256-28.374-57.945-62.097 2.888-29.398 30.041-50.987 60.448-50.987h334.321c34.948 0 62.021 29.695 57.789 63.388v0c-3.562 28.37-28.362 49.697-57.789 49.697v0zM471.072 26.336c17.946 0 33.086-12.804 35.218-29.782l4.747-37.804h-338.097c-43.512 0-80.191 28.753-90.679 67.586h388.811zM471.072 49.085h-414.568c0-62.455 52.13-113.085 116.436-113.085h349.309c4.905 0 9.707 0.39 14.452 0.962l-7.84 62.425c-3.562 28.371-28.362 49.698-57.789 49.698v0zM744.665 647.521h-22.749v188.932c0 19.999-13.33 37.361-33.167 43.198l-198.808 58.522 6.42 21.827 198.808-58.522c29.602-8.714 49.496-34.846 49.496-65.025v-188.932zM542.281 347.982h382.708v-22.749h-382.708v22.749zM542.281 291.432h382.708v-22.749h-382.708v22.749zM374.089 460.895c0-6.282-5.092-11.374-11.374-11.374s-11.374 5.092-11.374 11.374c0 6.282 5.092 11.374 11.374 11.374s11.374-5.092 11.374-11.374zM392.098 418.24c0-6.282-5.092-11.374-11.374-11.374s-11.374 5.092-11.374 11.374c0 6.282 5.092 11.374 11.374 11.374s11.374-5.092 11.374-11.374zM423.378 341.464c0-6.282-5.092-11.374-11.374-11.374s-11.374 5.092-11.374 11.374c0 6.282 5.092 11.374 11.374 11.374s11.374-5.092 11.374-11.374zM362.714 362.826c0-6.282-5.092-11.374-11.374-11.374s-11.374 5.092-11.374 11.374c0 6.282 5.092 11.374 11.374 11.374s11.374-5.092 11.374-11.374zM300.694 336.606c0-6.282-5.092-11.374-11.374-11.374s-11.374 5.092-11.374 11.374c0 6.282 5.092 11.374 11.374 11.374s11.374-5.092 11.374-11.374zM312.070 385.574c0-6.282-5.092-11.374-11.374-11.374s-11.374 5.092-11.374 11.374c0 6.282 5.092 11.374 11.374 11.374s11.374-5.092 11.374-11.374zM345.245 425.385c0-6.282-5.092-11.374-11.374-11.374s-11.374 5.092-11.374 11.374c0 6.282 5.092 11.374 11.374 11.374s11.374-5.092 11.374-11.374zM312.070 454.26c0-6.282-5.092-11.374-11.374-11.374s-11.374 5.092-11.374 11.374c0 6.282 5.092 11.374 11.374 11.374s11.374-5.092 11.374-11.374z" />
<glyph unicode="&#xe91c;" glyph-name="scanning" d="M959.978-64h-160v32.002h160c17.674 0 32 14.326 32 31.999v159.999h32v-160c0-35.345-28.653-64-64-64zM-0.020 464.001h1023.998v-32h-1023.998v32zM991.978 896c0 17.671-14.326 32-32 32h-160v32h160c35.347 0 64-28.653 64-64v-160.001h-32v160.001zM31.979 896v-160.001h-32v160.001c0 35.347 28.655 64 64 64h160v-32h-160c-17.674 0-32-14.328-32-32zM31.979 0.001c0-17.671 14.326-31.999 32-31.999h160v-32.002h-160c-35.346 0-64 28.655-64 64v160h32v-159.999z" />
<glyph unicode="&#xe91d;" glyph-name="search" d="M1023.957-22.894l-36.404-36.401-210.717 210.717c-82.54-76.028-192.41-122.841-313.48-122.841-255.903 0-463.357 207.451-463.357 463.357s207.454 463.356 463.357 463.356c255.906 0 463.357-207.451 463.357-463.357 0-116.298-43.153-222.306-113.919-303.664l211.162-211.167zM875.22 491.939c0 227.467-184.399 411.866-411.863 411.866s-411.864-184.4-411.864-411.866 184.399-411.864 411.863-411.864 411.864 184.397 411.864 411.864z" />
<glyph unicode="&#xe91e;" glyph-name="star" d="M1024.852 755.537c0 113.138-92.396 204.855-205.535 204.855h-614.679c-113.139 0-205.139-91.716-205.139-204.855v-614.683c0-113.138 92-204.792 205.139-204.792h614.679c113.139 0 205.535 91.654 205.535 204.792v614.683zM759.133 340.948l54.404-315.233-284.868 148.829-284.865-148.828 54.404 315.233-230.463 223.24 318.494 45.994 142.431 286.808 142.437-286.808 318.488-45.994-230.462-223.241zM677.506 211.75l-148.837 77.778-148.817-77.778 28.408 164.708-120.403 116.65 166.394 24.004 74.419 149.857 74.419-149.857 166.394-24.004-120.404-116.65z" />
<glyph unicode="&#xe91f;" glyph-name="star_left" d="M746.694 24.8l58.952 315.515-228.421 223.44 310.907 46.035 134.674 287.039v63.561h-289.567c-113.241 0-221.063-105.060-221.063-218.298v-615.123c0-113.239 107.822-190.908 221.063-190.908h289.567v237.694l-276.112-148.956zM957.33 516.638l-162.045-24.026 122.761-116.753-36.305-164.858 141.065 77.842v377.76z" />
<glyph unicode="&#xe920;" glyph-name="star_right" d="M324.184 960.392h-324.685v-63.526l8.818 0.025 146.742-286.612 320.471-45.963-229.203-223.087 54.918-315.017-293.203 148.726-8.543-0.006v-238.87h324.685c113.062 0 187.992 79.098 187.992 192.158v614.153c0 113.060-74.93 218.018-187.992 218.018zM165.86 212.12l-28.411 164.597 120.321 116.569-166.28 23.988-83.172 149.753-8.818-0.025v-377.164l8.818 0.006z" />
<glyph unicode="&#xe921;" glyph-name="success" d="M1001.207 786.891l-550.256-550.259-241.358 241.361 16.091 16.090 225.269-225.271 550.254 550.256v27.135c0 50.273-40.751 91.023-91.022 91.023h-796.409c-50.267 0-91.019-40.751-91.019-91.023v-796.411c0-50.268 40.752-91.018 91.019-91.018h796.407c50.272 0 91.022 40.749 91.022 91.018v702.966l0.018 0.017v-99.976h22.753v-603.024c0-62.836-50.938-113.775-113.776-113.775h-796.442c-62.837 0-113.78 50.939-113.78 113.775v796.445c0 62.836 50.943 113.777 113.78 113.777h796.443c62.838 0 113.776-50.941 113.776-113.777v-38.515l-22.772-22.772v1.956z" />
<glyph unicode="&#xe922;" glyph-name="to" d="M236.295 920.634l472.621-472.629-472.621-472.639 39.355-39.366 512.012 512.003-512.012 511.996-39.355-39.366z" />
<glyph unicode="&#xe923;" glyph-name="user" d="M819.178 278.738c86.198-77.506 143.212-186.867 151.936-309.765-8.099-11.405-16.776-22.334-25.792-32.973h-23.744c0 116.879-49.426 221.806-128 296.364l-13.6 18.037zM511.979 345.598c-226.217 0-409.6-183.381-409.6-409.598h-23.744c-9.016 10.639-17.692 21.568-25.792 32.973 13.711 193.152 146.204 353.369 324.939 407.81-102.318 49.853-173.002 154.547-173.002 276.016 0 169.661 137.538 307.2 307.2 307.2s307.2-137.537 307.2-307.199c0-161.016-123.945-292.869-281.6-305.909zM511.979 908.803c-141.384 0-255.999-114.616-255.999-256.003 0-141.384 114.616-255.999 255.999-255.999s255.999 114.615 255.999 255.999c0 141.386-114.616 256.003-255.999 256.003z" />
</font>
</defs>
</svg>
